<svg width="51" height="122" viewBox="0 0 51 122" fill="none" xmlns="http://www.w3.org/2000/svg">
<path d="M49.72 0.5C50 0.5 50.14 0.779999 50.14 1.34C50.14 1.9 50 2.18 49.72 2.18C47.2933 2.18 45.4733 2.45999 44.26 3.01999C43.14 3.58 42.3933 4.56 42.02 5.96C41.6467 7.26666 41.46 9.31999 41.46 12.12V88.56C41.46 99.0133 38.8467 107.18 33.62 113.06C28.4867 118.94 21.3 121.88 12.06 121.88C8.51333 121.88 5.62 121.133 3.38 119.64C1.14 118.147 0.0199995 116.093 0.0199995 113.48C0.0199995 111.613 0.626666 109.933 1.84 108.44C3.05333 107.04 4.87333 106.34 7.3 106.34C9.63333 106.34 11.4067 107.04 12.62 108.44C13.9267 109.84 15.0933 111.8 16.12 114.32C16.68 115.813 17.24 116.933 17.8 117.68C18.36 118.52 19.06 118.94 19.9 118.94C21.86 118.94 23.3067 117.353 24.24 114.18C25.1733 111.007 25.64 105.733 25.64 98.36V11.84C25.64 9.04 25.3133 6.98667 24.66 5.68C24.1 4.37333 23.0267 3.48666 21.44 3.01999C19.8533 2.45999 17.3333 2.18 13.88 2.18C13.6933 2.18 13.6 1.9 13.6 1.34C13.6 0.779999 13.6933 0.5 13.88 0.5L22.56 0.639998C27.04 0.826662 30.6333 0.919995 33.34 0.919995C35.9533 0.919995 39.22 0.826662 43.14 0.639998L49.72 0.5Z" fill="white"/>
</svg>
