<svg width="432" height="136" viewBox="0 0 432 136" fill="none" xmlns="http://www.w3.org/2000/svg">
<path d="M49.72 14.5C50 14.5 50.14 14.78 50.14 15.34C50.14 15.9 50 16.18 49.72 16.18C47.2933 16.18 45.4733 16.46 44.26 17.02C43.14 17.58 42.3933 18.56 42.02 19.96C41.6467 21.2667 41.46 23.32 41.46 26.12V102.56C41.46 113.013 38.8467 121.18 33.62 127.06C28.4867 132.94 21.3 135.88 12.06 135.88C8.51333 135.88 5.62 135.133 3.38 133.64C1.14 132.147 0.0199995 130.093 0.0199995 127.48C0.0199995 125.613 0.626666 123.933 1.84 122.44C3.05333 121.04 4.87333 120.34 7.3 120.34C9.63333 120.34 11.4067 121.04 12.62 122.44C13.9267 123.84 15.0933 125.8 16.12 128.32C16.68 129.813 17.24 130.933 17.8 131.68C18.36 132.52 19.06 132.94 19.9 132.94C21.86 132.94 23.3067 131.353 24.24 128.18C25.1733 125.007 25.64 119.733 25.64 112.36V25.84C25.64 23.04 25.3133 20.9867 24.66 19.68C24.1 18.3733 23.0267 17.4867 21.44 17.02C19.8533 16.46 17.3333 16.18 13.88 16.18C13.6933 16.18 13.6 15.9 13.6 15.34C13.6 14.78 13.6933 14.5 13.88 14.5L22.56 14.64C27.04 14.8267 30.6333 14.92 33.34 14.92C35.9533 14.92 39.22 14.8267 43.14 14.64L49.72 14.5ZM86.1605 103.82C80.3738 103.82 75.2871 102.513 70.9005 99.9C66.6071 97.1933 63.2938 93.6 60.9605 89.12C58.6271 84.5467 57.4605 79.6 57.4605 74.28C57.4605 68.2133 59.0005 63.08 62.0805 58.88C65.1605 54.5867 69.0805 51.4133 73.8405 49.36C78.6005 47.2133 83.5005 46.14 88.5405 46.14C94.3271 46.14 99.3671 47.4933 103.66 50.2C107.954 52.9067 111.22 56.5 113.46 60.98C115.794 65.3667 116.96 70.08 116.96 75.12C116.96 80.72 115.56 85.7133 112.76 90.1C109.96 94.3933 106.18 97.7533 101.42 100.18C96.7538 102.607 91.6671 103.82 86.1605 103.82ZM90.3605 100.88C94.0005 100.88 96.7538 99.1067 98.6205 95.56C100.58 91.92 101.56 86.74 101.56 80.02C101.56 73.4867 100.72 67.8867 99.0405 63.22C97.3605 58.5533 95.1671 55.0533 92.4605 52.72C89.7538 50.2933 86.8605 49.08 83.7805 49.08C76.3138 49.08 72.5805 55.7533 72.5805 69.1C72.5805 75.3533 73.3738 80.9067 74.9605 85.76C76.5471 90.52 78.6938 94.2533 81.4005 96.96C84.1071 99.5733 87.0938 100.88 90.3605 100.88ZM164.597 102C164.317 102 164.177 101.72 164.177 101.16C164.177 100.6 164.317 100.32 164.597 100.32C167.49 100.32 169.45 99.6667 170.477 98.36C171.503 96.96 172.017 94.3933 172.017 90.66V70.5C172.017 65.46 171.083 61.7267 169.217 59.3C167.443 56.8733 164.597 55.66 160.677 55.66C157.783 55.66 154.843 56.4067 151.857 57.9C148.963 59.3 146.677 61.1667 144.997 63.5L144.297 61.82C147.657 56.9667 151.39 53.1867 155.497 50.48C159.697 47.68 164.13 46.28 168.797 46.28C173.837 46.28 177.803 47.9133 180.697 51.18C183.683 54.3533 185.177 58.5533 185.177 63.78V90.66C185.177 94.3933 185.69 96.96 186.717 98.36C187.837 99.6667 189.843 100.32 192.737 100.32C193.017 100.32 193.157 100.6 193.157 101.16C193.157 101.72 193.017 102 192.737 102C190.31 102 188.397 101.953 186.997 101.86L178.597 101.72L170.477 101.86C168.983 101.953 167.023 102 164.597 102ZM126.937 102C126.657 102 126.517 101.72 126.517 101.16C126.517 100.6 126.657 100.32 126.937 100.32C129.83 100.32 131.79 99.6667 132.817 98.36C133.843 96.96 134.357 94.3933 134.357 90.66V64.34C134.357 61.4467 133.983 59.3467 133.237 58.04C132.583 56.64 131.51 55.94 130.017 55.94C128.43 55.94 126.19 56.5933 123.297 57.9H123.017C122.737 57.9 122.503 57.6667 122.317 57.2C122.223 56.7333 122.27 56.4533 122.457 56.36L141.917 46.84C142.477 46.6533 142.803 46.56 142.897 46.56C144.017 46.56 145.043 47.7733 145.977 50.2C147.003 52.5333 147.517 55.66 147.517 59.58V90.66C147.517 94.3933 148.03 96.96 149.057 98.36C150.177 99.6667 152.183 100.32 155.077 100.32C155.357 100.32 155.497 100.6 155.497 101.16C155.497 101.72 155.357 102 155.077 102C152.65 102 150.737 101.953 149.337 101.86L140.937 101.72L132.677 101.86C131.277 101.953 129.363 102 126.937 102ZM238.288 102C238.008 102 237.868 101.72 237.868 101.16C237.868 100.6 238.008 100.32 238.288 100.32C241.181 100.32 243.141 99.6667 244.168 98.36C245.195 96.96 245.708 94.3933 245.708 90.66V70.5C245.708 65.46 244.775 61.7267 242.908 59.3C241.135 56.8733 238.288 55.66 234.368 55.66C231.475 55.66 228.535 56.4067 225.548 57.9C222.655 59.3 220.368 61.1667 218.688 63.5L217.988 61.82C221.348 56.9667 225.081 53.1867 229.188 50.48C233.388 47.68 237.821 46.28 242.488 46.28C247.528 46.28 251.495 47.9133 254.388 51.18C257.375 54.3533 258.868 58.5533 258.868 63.78V90.66C258.868 94.3933 259.381 96.96 260.408 98.36C261.528 99.6667 263.535 100.32 266.428 100.32C266.708 100.32 266.848 100.6 266.848 101.16C266.848 101.72 266.708 102 266.428 102C264.001 102 262.088 101.953 260.688 101.86L252.288 101.72L244.168 101.86C242.675 101.953 240.715 102 238.288 102ZM200.628 102C200.348 102 200.208 101.72 200.208 101.16C200.208 100.6 200.348 100.32 200.628 100.32C203.521 100.32 205.481 99.6667 206.508 98.36C207.535 96.96 208.048 94.3933 208.048 90.66V64.34C208.048 61.4467 207.675 59.3467 206.928 58.04C206.275 56.64 205.201 55.94 203.708 55.94C202.121 55.94 199.881 56.5933 196.988 57.9H196.708C196.428 57.9 196.195 57.6667 196.008 57.2C195.915 56.7333 195.961 56.4533 196.148 56.36L215.608 46.84C216.168 46.6533 216.495 46.56 216.588 46.56C217.708 46.56 218.735 47.7733 219.668 50.2C220.695 52.5333 221.208 55.66 221.208 59.58V90.66C221.208 94.3933 221.721 96.96 222.748 98.36C223.868 99.6667 225.875 100.32 228.768 100.32C229.048 100.32 229.188 100.6 229.188 101.16C229.188 101.72 229.048 102 228.768 102C226.341 102 224.428 101.953 223.028 101.86L214.628 101.72L206.368 101.86C204.968 101.953 203.055 102 200.628 102ZM295.739 103.68C290.606 103.68 286.546 102.093 283.559 98.92C280.666 95.6533 279.219 91.4067 279.219 86.18V65.6C279.219 59.5333 277.773 56.5 274.879 56.5C273.853 56.5 272.686 56.8267 271.379 57.48H271.239C270.866 57.48 270.586 57.2467 270.399 56.78C270.213 56.22 270.259 55.8933 270.539 55.8L289.299 46.84L289.999 46.7C290.466 46.7 290.933 46.9333 291.399 47.4C291.959 47.7733 292.239 48.1467 292.239 48.52V79.46C292.239 89.54 296.113 94.58 303.859 94.58C306.473 94.58 309.133 93.8333 311.839 92.34C314.639 90.8467 316.833 88.8867 318.419 86.46L319.259 88.14C315.899 92.9933 312.259 96.82 308.339 99.62C304.419 102.327 300.219 103.68 295.739 103.68ZM328.779 85.76C328.779 88.9333 329.059 91.1733 329.619 92.48C330.273 93.7867 331.299 94.44 332.699 94.44C334.006 94.44 335.919 93.9267 338.439 92.9H338.719C338.999 92.9 339.233 93.1333 339.419 93.6C339.699 94.0667 339.699 94.3467 339.419 94.44L320.099 103.82C319.913 103.913 319.679 103.96 319.399 103.96C318.373 103.96 317.486 102.747 316.739 100.32C316.086 97.8933 315.759 94.6267 315.759 90.52V65.6C315.759 59.5333 314.313 56.5 311.419 56.5C310.393 56.5 309.179 56.8267 307.779 57.48H307.639C307.359 57.48 307.126 57.2467 306.939 56.78C306.753 56.22 306.799 55.8933 307.079 55.8L325.839 46.84C326.026 46.7467 326.259 46.7 326.539 46.7C327.006 46.7 327.473 46.9333 327.939 47.4C328.499 47.7733 328.779 48.1467 328.779 48.52V85.76ZM372.443 103.68C366.563 103.68 361.476 102.467 357.183 100.04C352.89 97.52 349.623 94.2067 347.383 90.1C345.143 85.9 344.023 81.3733 344.023 76.52C344.023 71.1067 345.376 66.1133 348.083 61.54C350.79 56.9667 354.523 53.3733 359.283 50.76C364.136 48.0533 369.596 46.7 375.663 46.7C381.45 46.7 385.93 48.0067 389.103 50.62C392.276 53.2333 393.863 57.2933 393.863 62.8C393.863 65.6933 393.35 67.14 392.323 67.14H378.883C379.07 61.4467 378.51 57.1067 377.203 54.12C375.896 51.04 373.61 49.5 370.343 49.5C366.61 49.5 363.623 51.4133 361.383 55.24C359.236 59.0667 358.163 64.1533 358.163 70.5C358.163 78.7133 360.03 85.1533 363.763 89.82C367.59 94.4867 373.05 96.82 380.143 96.82C382.663 96.82 384.81 96.54 386.583 95.98C388.356 95.3267 390.69 94.3 393.583 92.9L393.863 92.76C394.05 92.76 394.236 92.9467 394.423 93.32C394.703 93.6933 394.75 93.9733 394.563 94.16C391.11 97.52 387.61 99.9467 384.063 101.44C380.516 102.933 376.643 103.68 372.443 103.68ZM353.123 64.62L383.783 64.06V67.14L353.263 67.28L353.123 64.62ZM402.959 102C402.772 102 402.679 101.72 402.679 101.16C402.679 100.6 402.772 100.32 402.959 100.32C405.852 100.32 407.812 99.6667 408.839 98.36C409.959 96.96 410.519 94.3933 410.519 90.66L410.659 19.54C410.659 16.2733 410.332 13.94 409.679 12.54C409.119 11.14 408.092 10.44 406.599 10.44C405.385 10.44 403.612 10.9533 401.279 11.98H401.139C400.859 11.98 400.579 11.7467 400.299 11.28C400.112 10.72 400.112 10.3933 400.299 10.3L420.879 0.639995L421.439 0.499997C421.905 0.499997 422.419 0.73333 422.979 1.2C423.539 1.57333 423.819 1.94666 423.819 2.32V90.66C423.819 94.3933 424.332 96.96 425.359 98.36C426.385 99.6667 428.345 100.32 431.239 100.32C431.612 100.32 431.799 100.6 431.799 101.16C431.799 101.72 431.612 102 431.239 102C428.905 102 427.039 101.953 425.639 101.86L417.099 101.72L408.699 101.86C407.299 101.953 405.385 102 402.959 102Z" fill="white"/>
</svg>
